<?xml version="1.0" encoding="utf-8"?>
<!-- Generator: Adobe Illustrator 24.1.2, SVG Export Plug-In . SVG Version: 6.00 Build 0)  -->
<svg version="1.1" id="Слой_1" xmlns="http://www.w3.org/2000/svg" xmlns:xlink="http://www.w3.org/1999/xlink" x="0px" y="0px"
	 viewBox="0 0 850.4 141.7" style="enable-background:new 0 0 850.4 141.7;" xml:space="preserve">
<style type="text/css">
	.st0{fill:#4A48B0;}
</style>
<g>
	<path class="st0" d="M49.3,82.6l-16.3,19v29.8H13.8V14.8H33v59.7l50.9-59.7h21.5L62.1,66.9l45.9,64.4H85.7L49.3,82.6z"/>
	<path class="st0" d="M223.8,14.8v116.5h-19.1V81.4h-53.3v49.9h-19.1V14.8h19.1v48.1h53.3V14.8H223.8z"/>
	<path class="st0" d="M329.3,104.4h-51.5l-10.2,27h-19.7l46.4-116.5h18.8l46.5,116.5h-20L329.3,104.4z M323,87.4l-19.4-50.9
		l-19.3,50.9H323z"/>
	<path class="st0" d="M383.8,14.8h19.1v116.5h-19.1V14.8z"/>
	<path class="st0" d="M441.8,14.8h19.1V113h53.9v18.3h-73V14.8z"/>
	<path class="st0" d="M541,14.8h19.1v116.5H541V14.8z"/>
	<path class="st0" d="M690.5,14.8v116.5h-15.8L618,52.4v78.9h-19V14.8h15.8l56.8,78.9V14.8H690.5z"/>
	<path class="st0" d="M749,125.3c-8.4-5.2-15.1-12.3-19.9-21.5c-4.8-9.2-7.2-19.4-7.2-30.7s2.4-21.6,7.2-30.7
		c4.8-9.2,11.4-16.3,19.9-21.5c8.4-5.2,17.9-7.7,28.4-7.7s20,2.6,28.4,7.7c8.4,5.2,15.1,12.3,19.9,21.4c4.8,9.1,7.2,19.4,7.2,30.8
		s-2.4,21.7-7.2,30.8s-11.4,16.2-19.9,21.4c-8.4,5.2-17.9,7.7-28.4,7.7C766.9,133,757.4,130.4,749,125.3z M795.9,108.8
		c5.5-3.5,9.8-8.4,13-14.6c3.1-6.3,4.7-13.3,4.7-21.1S812,58.3,808.9,52c-3.1-6.3-7.5-11.2-13-14.6c-5.5-3.5-11.7-5.2-18.5-5.2
		c-6.9,0-13.1,1.7-18.5,5.2c-5.5,3.5-9.8,8.4-13,14.6c-3.1,6.3-4.7,13.3-4.7,21.1s1.6,14.8,4.7,21.1c3.1,6.3,7.5,11.2,13,14.6
		c5.5,3.5,11.7,5.2,18.5,5.2S790.4,112.3,795.9,108.8z"/>
</g>
</svg>
